<?xml version="1.0" encoding="utf-8"?>
<!-- Generator: Adobe Illustrator 15.0.0, SVG Export Plug-In . SVG Version: 6.00 Build 0)  -->
<!DOCTYPE svg PUBLIC "-//W3C//DTD SVG 1.1//EN" "http://www.w3.org/Graphics/SVG/1.1/DTD/svg11.dtd">
<svg version="1.1" id="Layer_1" xmlns="http://www.w3.org/2000/svg" xmlns:xlink="http://www.w3.org/1999/xlink" x="0px" y="0px"
	 width="26px" height="26px" viewBox="0 0 26 26" enable-background="new 0 0 26 26" xml:space="preserve">
<g>
	<circle cx="13.905" cy="11.253" r="0.455"/>
	<circle cx="15.117" cy="11.253" r="0.455"/>
	<rect x="10.213" y="10.978" width="2.574" height="0.485"/>
	<path d="M19.794,9.283c-0.206-0.186-0.5-0.245-0.762-0.154c-0.003,0.002-1.008,0.14-1.008,0.14s-3.138-0.638-4.443-3.679
		c-0.117-0.272-0.38-0.451-0.676-0.46c-0.316-0.006-0.57,0.156-0.702,0.42C10.67,8.624,7.65,9.269,7.65,9.269L6.761,9.14
		c-0.264-0.105-0.564-0.055-0.778,0.13c-0.216,0.186-0.309,0.475-0.244,0.751c0.483,2.027,3.094,12.139,7.145,12.139
		c4.049,0,6.661-10.111,7.143-12.139C20.091,9.752,20,9.469,19.794,9.283z M16.11,16.535c0,0.187-0.151,0.338-0.338,0.338h-5.78
		c-0.187,0-0.338-0.151-0.338-0.338v-5.78c0-0.187,0.151-0.337,0.338-0.337h5.78c0.187,0,0.338,0.151,0.338,0.337V16.535z"/>
	<rect x="10.161" y="12.021" width="5.444" height="4.347"/>
</g>
</svg>
