<?xml version="1.0" encoding="utf-8"?>
<!-- Generator: Adobe Illustrator 16.0.4, SVG Export Plug-In . SVG Version: 6.00 Build 0)  -->
<!DOCTYPE svg PUBLIC "-//W3C//DTD SVG 1.1//EN" "http://www.w3.org/Graphics/SVG/1.1/DTD/svg11.dtd">
<svg version="1.1" id="Capa_1" xmlns="http://www.w3.org/2000/svg" xmlns:xlink="http://www.w3.org/1999/xlink" x="0px" y="0px"
	 width="431.039px" height="474px" viewBox="0 0 431.039 474" enable-background="new 0 0 431.039 474" xml:space="preserve">
<path d="M400.039,160c2.667-34,13-65,31-93l-69-67c-22,18.667-47,28.667-75,30c-26,2.667-50.333-2-73-14
	c-23.334,11.333-47.667,16-73,14c-26.667-2-50.333-11-71-27l-69,66c16.667,29.333,26,59.667,28,91c0.667,14.667-3.667,35-13,61
	c-5.333,14-9.333,26.333-12,37c-2,10.667-3.333,19-4,25c-0.667,27.333,7.333,52,24,74c12.667,16.667,34,34.667,64,54
	c32,16,56.667,26,74,30c2,0.667,4.5,1.833,7.5,3.5s5.5,2.833,7.5,3.5l14,6c11.333,6.667,19,13.333,23,20
	c4.667-7.333,12.333-14,23-20c8.667-3.333,15-6,19-8c6.667-2.667,10.333-4.333,11-5c4-1.333,9-3.333,15-6l22-8
	c16.667-5.333,29-10.667,37-16c28.667-19.333,49.667-37,63-53c16.667-22,25-47,25-75c-1.333-12.667-7-32.667-17-60
	C402.706,195.667,398.706,174.667,400.039,160z"/>
</svg>
