<?xml version="1.0" encoding="utf-8"?>
<!-- Generator: Adobe Illustrator 16.0.4, SVG Export Plug-In . SVG Version: 6.00 Build 0)  -->
<!DOCTYPE svg PUBLIC "-//W3C//DTD SVG 1.1//EN" "http://www.w3.org/Graphics/SVG/1.1/DTD/svg11.dtd">
<svg version="1.1" id="Capa_1" xmlns="http://www.w3.org/2000/svg" xmlns:xlink="http://www.w3.org/1999/xlink" x="0px" y="0px"
	 width="17.562px" height="16px" viewBox="0 0 17.562 16" enable-background="new 0 0 17.562 16" xml:space="preserve">
<path d="M13.657,2.343C12.095,0.781,10.047,0,8,0S3.905,0.781,2.343,2.343c-3.124,3.124-3.124,8.19,0,11.314
	C3.905,15.219,5.953,16,8,16s4.096-0.781,5.657-2.343C16.781,10.533,16.781,5.467,13.657,2.343z M8,1
	c1.092,0,2.143,0.255,3.093,0.725L9.55,3.268C9.046,3.103,8.525,3,8,3C7.522,3,7.049,3.091,6.586,3.227l-1.56-1.56
	C5.946,1.236,6.954,1,8,1z M1.725,11.094C1.255,10.143,1,9.092,1,8c0-1.046,0.236-2.054,0.668-2.973l1.561,1.56
	c-0.286,0.97-0.274,2,0.04,2.964L1.725,11.094z M8,15c-1.001,0-1.966-0.215-2.853-0.611l1.576-1.576C7.142,12.924,7.569,13,8,13
	c0.479,0,0.951-0.091,1.414-0.229l1.561,1.561C10.054,14.764,9.046,15,8,15z M10.828,10.828C10.073,11.584,9.068,12,8,12
	c-1.067,0-2.073-0.416-2.828-1.172C4.416,10.073,4,9.068,4,8c0-1.068,0.416-2.073,1.172-2.828C5.927,4.416,6.932,4,8,4
	c1.068,0,2.073,0.416,2.828,1.172C11.584,5.927,12,6.932,12,8C12,9.068,11.584,10.073,10.828,10.828z M12.773,9.414
	c0.259-0.879,0.273-1.806,0.04-2.691l1.573-1.573c0.822,1.851,0.804,3.983-0.057,5.821L12.773,9.414z"/>
</svg>
