<?xml version="1.0" encoding="utf-8"?>
<!-- Generator: Adobe Illustrator 16.0.4, SVG Export Plug-In . SVG Version: 6.00 Build 0)  -->
<!DOCTYPE svg PUBLIC "-//W3C//DTD SVG 1.1//EN" "http://www.w3.org/Graphics/SVG/1.1/DTD/svg11.dtd">
<svg version="1.1" id="Capa_1" xmlns="http://www.w3.org/2000/svg" xmlns:xlink="http://www.w3.org/1999/xlink" x="0px" y="0px"
	 width="410px" height="492px" viewBox="0 0 410 492" enable-background="new 0 0 410 492" xml:space="preserve">
<path d="M403,211c-4.667-4-8.667-6-12-6h-22v-88c0-29.334-12.167-56.167-36.5-80.5S281.333,0,252,0h-97
	c-28.667,0-54.833,12.167-78.5,36.5S41,87.667,41,117v88H17c-3.333,0-7,2-11,6s-6,7.667-6,11v261c0,6,5.667,9,17,9h374
	c12.667,0,19-3,19-9V222C410,218.667,407.667,215,403,211z M253,451h-99l21-102c-14-10-21-24-21-42c0-14,4.833-25.833,14.5-35.5
	s21.334-14.5,35-14.5c13.667,0,25.333,4.667,35,14c9.667,9.334,14.5,20.667,14.5,34c0,19.333-6.667,34-20,44L253,451z M297,205H113
	v-88c0-13.335,4-24.168,12-32.5c8-8.333,18.333-12.5,31-12.5h95c13.333,0,24.333,4.167,33,12.5s13,19.167,13,32.5V205z"/>
</svg>
