<?xml version="1.0" encoding="iso-8859-1"?>
<!-- Generator: Adobe Illustrator 16.0.4, SVG Export Plug-In . SVG Version: 6.00 Build 0)  -->
<!DOCTYPE svg PUBLIC "-//W3C//DTD SVG 1.1//EN" "http://www.w3.org/Graphics/SVG/1.1/DTD/svg11.dtd">
<svg version="1.1" id="Capa_1" xmlns="http://www.w3.org/2000/svg" xmlns:xlink="http://www.w3.org/1999/xlink" x="0px" y="0px"
	 width="300px" height="300px" viewBox="0 0 300 300" style="enable-background:new 0 0 300 300;" xml:space="preserve">
<path d="M174.494,43.801h25.133c20.914-0.039,32.101,9.551,32.125,31.441v113.341h21.436V75.242
	c-0.33-39.423-21.371-53.154-53.561-52.914h-25.133H156.15V11.7h-40.715c-3.027-1.381-6.384-2.153-9.932-2.153
	c-13.174,0-23.841,10.667-23.841,23.84l0.102,2.255C68.297,42.167,45.926,54.163,28,66.046l25.881,26.007l32.912-43.881
	c4.37,5.523,11.122,9.058,18.709,9.058c2.128,0,4.206-0.267,6.17-0.798c-17.052,7.322-40.841,31.974-40.905,40.968h0v32.684v139.5
	h128.644v-139.5V97.398c0.075-8.917-26.527-34.773-43.262-41.145V43.801H174.494z M113.826,33.641v6.587
	c-1.976,2.394-4.965,3.927-8.323,3.927c-5.954,0-10.767-4.814-10.767-10.768c0-5.954,4.813-10.768,10.767-10.768
	c3.358,0,6.348,1.533,8.323,3.927V33.641z"/>
<polygon points="253.263,192.929 231.791,192.929 211.953,290.459 271.998,290.459 "/>
<rect x="70.769" y="275.029" width="128.644" height="15.417"/>
</svg>
