<svg width="64" xmlns="http://www.w3.org/2000/svg" height="64" viewBox="0 0 64 64" xmlns:xlink="http://www.w3.org/1999/xlink" enable-background="new 0 0 64 64">
<path d="m41.995,51.064c-.276,0-.5-.224-.5-.5v-25.833c0-.275-.225-.5-.5-.5h-20.833c-.275,0-.5,.225-.5,.5v25.833c0,.276-.224,.5-.5,.5-.276,0-.5-.224-.5-.5v-25.833c0-.827 .673-1.5 1.5-1.5h20.833c.827,0 1.5,.673 1.5,1.5v25.833c0,.277-.224,.5-.5,.5z"/>
<path d="m33.598,32.012h-6.037c-.86,0-1.561-.7-1.561-1.56v-1.303c0-.86 .7-1.56 1.561-1.56h6.037c.86,0 1.56,.7 1.56,1.56v1.303c-.001,.86-.7,1.56-1.56,1.56zm-6.037-3.424c-.309,0-.561,.251-.561,.56v1.303c0,.309 .252,.56 .561,.56h6.037c.309,0 .56-.251 .56-.56v-1.303c0-.309-.251-.56-.56-.56h-6.037z"/>
<path d="m43.662,17.565h-5.333v-9.086c0-.272-.11-.518-.286-.698 .049-.118 .077-.248 .077-.385v-3c0-.553-.447-1-1-1h-12.667c-.553,0-1,.447-1,1v3c0,.118 .029,.227 .067,.332-.215,.183-.358,.446-.358,.751v9.086h-7c-2.206,0-4,1.794-4,4v30.834c0,2.206 1.794,4 4,4h3.41v1.264c0,.859 .7,1.559 1.56,1.559h1.303c.86,0 1.56-.699 1.56-1.559v-1.264h12.992v1.264c0,.859 .7,1.559 1.56,1.559h1.303c.86,0 1.56-.699 1.56-1.559v-1.264h2.25c2.206,0 4-1.794 4-4v-30.834c.002-2.207-1.792-4-3.998-4zm-18.209-10.169v-2h10.667v2c0,.273 .11,.518 .287,.698-.05,.118-.078,.248-.078,.385v9.086h-11.167v-9.086c0-.118-.029-.227-.067-.332 .215-.184 .358-.447 .358-.751zm-2.457,50.266c0,.308-.251,.559-.56,.559h-1.303c-.309,0-.56-.251-.56-.559v-1.264h2.424v1.264zm17.415,0c0,.308-.251,.559-.56,.559h-1.303c-.309,0-.56-.251-.56-.559v-1.264h2.424v1.264zm5.249-5.264c0,1.103-.897,2-2,2h-27.5c-1.102,0-2-.897-2-2v-30.833c0-1.103 .898-2 2-2h27.5c1.103,0 2,.897 2,2v30.833z"/>
</svg>
