<?xml version="1.0" encoding="iso-8859-1"?>
<!-- Generator: Adobe Illustrator 16.0.0, SVG Export Plug-In . SVG Version: 6.00 Build 0)  -->
<!DOCTYPE svg PUBLIC "-//W3C//DTD SVG 1.1//EN" "http://www.w3.org/Graphics/SVG/1.1/DTD/svg11.dtd">
<svg version="1.1" id="Capa_1" xmlns="http://www.w3.org/2000/svg" xmlns:xlink="http://www.w3.org/1999/xlink" x="0px" y="0px"
	 width="26.356px" height="26.261px" viewBox="0 0 26.356 26.261" style="enable-background:new 0 0 26.356 26.261;"
	 xml:space="preserve">
<path d="M2.446,2.442c-3.264,3.264-3.26,8.559,0,11.816c2.312,2.312,5.639,2.984,8.543,2.025l2.672,2.672
	c0,0,2.266-1.934,3.553-0.648c0.895,0.895,0.172,2.335-0.092,3.305c-0.115,0.43-0.396,1.374,0.93,0.953
	c0.715-0.219,2.197-1.111,3.359,0.049c1.16,1.161-0.219,3.646-0.219,3.646l5.164-0.003l-0.002-5.19L16.28,10.992
	c0.963-2.903,0.291-6.237-2.021-8.55C11.001-0.813,5.706-0.815,2.446,2.442z M3.362,11.921c-1.621-2.398-1.373-5.686,0.754-7.81
	c2.123-2.123,5.408-2.372,7.801-0.749L3.362,11.921z"/>
<g>
</g>
<g>
</g>
<g>
</g>
<g>
</g>
<g>
</g>
<g>
</g>
<g>
</g>
<g>
</g>
<g>
</g>
<g>
</g>
<g>
</g>
<g>
</g>
<g>
</g>
<g>
</g>
<g>
</g>
</svg>
