<?xml version="1.0" encoding="utf-8"?>
<!-- Generator: Adobe Illustrator 15.0.0, SVG Export Plug-In . SVG Version: 6.00 Build 0)  -->
<!DOCTYPE svg PUBLIC "-//W3C//DTD SVG 1.1//EN" "http://www.w3.org/Graphics/SVG/1.1/DTD/svg11.dtd">
<svg version="1.1" id="Layer_1" xmlns="http://www.w3.org/2000/svg" xmlns:xlink="http://www.w3.org/1999/xlink" x="0px" y="0px"
	 width="26px" height="26px" viewBox="0 0 26 26" enable-background="new 0 0 26 26" xml:space="preserve">
<g>
	<rect fill="none" width="26" height="26"/>
	<path fill="#000000" d="M8,0.188C3.686,0.188,0.188,3.685,0.188,8c0,4.314,3.498,7.813,7.813,7.813S15.813,12.314,15.813,8
		C15.813,3.685,12.314,0.188,8,0.188z M5.5,8.102c-1.437,0-2.602-1.165-2.602-2.603c0-1.436,1.165-2.601,2.602-2.601
		s2.602,1.165,2.602,2.601C8.102,6.937,6.937,8.102,5.5,8.102z"/>
	<path fill="#000000" d="M25.559,20.6l-8.978-8.977c-0.272,0.646-0.624,1.249-1.03,1.812l7.821,7.821
		c0.341,0.342,0.341,0.898-0.001,1.24c-0.341,0.341-0.898,0.341-1.239,0l-7.737-7.738C13.434,15.667,12.28,16.373,11,16.81V18.2
		c0,0.44,0.359,0.8,0.8,0.8H14v2.2c0,0.44,0.359,0.8,0.8,0.8H17v2.2c0,0.44,0.359,0.8,0.8,0.8h2.241l0.559,0.559
		c0.342,0.342,3.767,0.522,4.624-0.334C26.081,24.367,25.9,20.941,25.559,20.6z"/>
</g>
</svg>
