<?xml version="1.0" encoding="iso-8859-1"?>
<!-- Generator: Adobe Illustrator 16.0.0, SVG Export Plug-In . SVG Version: 6.00 Build 0)  -->
<!DOCTYPE svg PUBLIC "-//W3C//DTD SVG 1.1//EN" "http://www.w3.org/Graphics/SVG/1.1/DTD/svg11.dtd">
<svg version="1.1" id="Capa_1" xmlns="http://www.w3.org/2000/svg" xmlns:xlink="http://www.w3.org/1999/xlink" x="0px" y="0px"
	 width="17.972px" height="32.787px" viewBox="0 0 17.972 32.787" style="enable-background:new 0 0 17.972 32.787;"
	 xml:space="preserve">
<path style="fill:#000000;" d="M14.22,17.145c1.596-1.705,2.195-4.227,1.336-6.564c-0.619-1.678-1.873-2.938-3.391-3.611
	c0.057-0.33,0.092-0.668,0.092-1.016C12.257,2.664,9.621,0,6.367,0C3.113,0,0.479,2.664,0.479,5.953c0,1.25,0.381,2.406,1.031,3.365
	C0.568,10.43,0,11.861,0,13.43c0,2.49,1.431,4.648,3.516,5.699v2.877c0,0,2.263,0.182,2.263,1.568c0,0.963-1.166,1.35-1.833,1.732
	c-0.293,0.168-0.951,0.525-0.013,1.014c0.504,0.268,1.788,0.586,1.788,1.836c0,1.252-2.084,1.85-2.084,1.85l2.782,2.781l2.801-2.799
	v-9.93l0.645,1.76c0,0,2.188-0.615,2.666,0.686c0.332,0.904-0.627,1.674-1.121,2.26c-0.217,0.26-0.713,0.824,0.338,0.957
	c0.564,0.076,1.881-0.066,2.312,1.105c0.432,1.176-1.318,2.455-1.318,2.455l3.572,1.648l1.66-3.594L14.22,17.145z M6.369,0.957
	c2.729,0,4.939,2.238,4.939,4.996c0,0.236-0.035,0.461-0.066,0.686c-1.232-0.332-2.576-0.307-3.865,0.166
	c-0.221,0.08-0.428,0.174-0.633,0.273C6.617,7.072,6.496,7.061,6.369,7.061c-1.596,0-3.048,0.592-4.167,1.561
	C1.717,7.848,1.426,6.936,1.426,5.953C1.426,3.195,3.639,0.957,6.369,0.957z M7.683,12.66H4.941
	c0.016-0.305,0.064-0.604,0.141-0.896c0.412,0.092,0.844,0.146,1.285,0.146c1.383,0,2.65-0.486,3.654-1.291
	c0.238,0.293,0.432,0.619,0.592,0.963L7.683,12.66z M7.134,8.928c0.828,0.137,1.584,0.484,2.205,0.996
	c-0.828,0.633-1.85,1.025-2.971,1.025c-0.328,0-0.645-0.035-0.955-0.098C5.791,10.076,6.373,9.402,7.134,8.928z M3.766,10.186
	c-0.127-0.082-0.248-0.17-0.369-0.262c0.242-0.199,0.507-0.365,0.785-0.512C4.026,9.66,3.887,9.918,3.766,10.186z M10.535,8.621
	c-0.156-0.135-0.32-0.264-0.486-0.383c0.215,0.021,0.428,0.053,0.635,0.102C10.632,8.434,10.589,8.533,10.535,8.621z M1.756,12.66
	c0.146-0.762,0.488-1.455,0.957-2.039c0.229,0.182,0.469,0.348,0.725,0.494c-0.137,0.502-0.213,1.018-0.223,1.545H1.756z
	 M12.246,10.982c-0.252-0.611-0.602-1.168-1.021-1.664c0.145-0.209,0.27-0.43,0.385-0.656c0.824,0.385,1.543,0.994,2.033,1.807
	L12.246,10.982z"/>
<g>
</g>
<g>
</g>
<g>
</g>
<g>
</g>
<g>
</g>
<g>
</g>
<g>
</g>
<g>
</g>
<g>
</g>
<g>
</g>
<g>
</g>
<g>
</g>
<g>
</g>
<g>
</g>
<g>
</g>
</svg>
