<?xml version="1.0" encoding="utf-8"?>
<!-- Generator: Adobe Illustrator 16.0.4, SVG Export Plug-In . SVG Version: 6.00 Build 0)  -->
<!DOCTYPE svg PUBLIC "-//W3C//DTD SVG 1.1//EN" "http://www.w3.org/Graphics/SVG/1.1/DTD/svg11.dtd">
<svg version="1.1" id="Capa_1" xmlns="http://www.w3.org/2000/svg" xmlns:xlink="http://www.w3.org/1999/xlink" x="0px" y="0px"
	 width="16px" height="16px" viewBox="0 0 16 16" enable-background="new 0 0 16 16" xml:space="preserve">
<g>
	<path d="M14,6H3.995L4,5.576C4,2.882,5.664,1,8.048,1c1.745,0,3.3,1.003,4.06,2.618c0.117,0.25,0.414,0.357,0.664,0.239
		c0.25-0.117,0.357-0.415,0.24-0.665C12.086,1.224,10.186,0,8.048,0C5.123,0,3,2.345,3,5.57L2.995,6H2C1.448,6,1,6.448,1,7v8
		c0,0.552,0.448,1,1,1h12c0.552,0,1-0.448,1-1V7C15,6.448,14.552,6,14,6z M14,15H2V7h12V15z"/>
	<path d="M8,13c1.105,0,2-0.895,2-2S9.105,9,8,9c-1.105,0-2,0.895-2,2S6.895,13,8,13z M8,10c0.551,0,1,0.449,1,1s-0.449,1-1,1
		s-1-0.449-1-1S7.449,10,8,10z"/>
</g>
</svg>
