<svg width="64" xmlns="http://www.w3.org/2000/svg" height="64" viewBox="0 0 64 64" xmlns:xlink="http://www.w3.org/1999/xlink" enable-background="new 0 0 64 64">
<g fill="none" stroke="#000" stroke-miterlimit="10">
<path stroke-width="2" d="m50.742,52.014h-40.208c-2.072,0-3.75-1.679-3.75-3.75v-38.334c0-2.071 1.678-3.75 3.75-3.75h40.208c2.072,0 3.75,1.679 3.75,3.75v38.334c0,2.071-1.678,3.75-3.75,3.75z"/>
<path d="m25.742,54.93h-12.083c-.691,0-1.25-.559-1.25-1.25 0-.691 .559-1.25 1.25-1.25h12.083c.691,0 1.25,.559 1.25,1.25 0,.691-.558,1.25-1.25,1.25z"/>
<path d="m49.18,54.93h-12.083c-.691,0-1.25-.559-1.25-1.25 0-.691 .559-1.25 1.25-1.25h12.083c.691,0 1.25,.559 1.25,1.25 0,.691-.559,1.25-1.25,1.25z"/>
</g>
<path d="m19.297,37.122c3.799,0 6.89-3.091 6.89-6.889 0-3.799-3.091-6.89-6.89-6.89-3.797,0-6.888,3.091-6.888,6.89 0,3.798 3.091,6.889 6.888,6.889zm0-12.581c3.139,0 5.692,2.555 5.692,5.692s-2.554,5.691-5.692,5.691c-3.137,0-5.69-2.554-5.69-5.691s2.553-5.692 5.69-5.692z"/>
<path d="m19.294,32.49c1.237,0 2.246-1.008 2.246-2.246 0-1.238-1.009-2.246-2.246-2.246-1.239,0-2.246,1.008-2.246,2.246-0,1.238 1.007,2.246 2.246,2.246zm0-3.892c.908,0 1.646,.738 1.646,1.646s-.738,1.647-1.646,1.647c-.908,0-1.648-.739-1.648-1.647s.74-1.646 1.648-1.646z"/>
<path d="m17.165,32.053c-.076,0-.153,.029-.212,.088l-1.514,1.501c-.117,.116-.118,.306-.001,.424 .117,.117 .307,.118 .424,.001l1.514-1.502c.117-.116 .118-.306 .001-.424-.059-.059-.136-.088-.212-.088z"/>
<path d="m21.609,28.395l1.513-1.503c.117-.116 .118-.306 .001-.424-.059-.059-.135-.088-.213-.088-.075,0-.152,.029-.211,.088l-1.513,1.501c-.117,.116-.118,.306-.001,.424 .117,.117 .306,.119 .424,.002z"/>
<path d="m21.609,32.141c-.059-.059-.136-.088-.211-.088-.078,0-.154,.03-.213,.088-.117,.118-.116,.308 .001,.424l1.513,1.502c.118,.117 .308,.115 .424-.001 .117-.118 .116-.308-.001-.424l-1.513-1.501z"/>
<path d="m16.953,28.51c.117,.119 .308,.115 .424-.001 .117-.117 .116-.307-.001-.423l-1.514-1.502c-.059-.059-.135-.087-.211-.087-.077,0-.154,.029-.213,.088-.117,.118-.116,.308 .001,.424l1.514,1.501z"/>
<path d="m21.854,30.257c.001,.166 .136,.299 .301,.299 0,0 0,0 .001,0l2.131-.007c.166-.002 .3-.136 .3-.302-.002-.165-.135-.298-.301-.298l-2.133,.008c-.166,.001-.299,.135-.299,.3z"/>
<path d="m14.276,30.536h.001l2.132-.009c.166,0 .299-.134 .299-.3-.001-.165-.134-.298-.3-.298 0,0 0,0-.002,0l-2.131,.009c-.165,0-.299,.134-.298,.3 0,.165 .134,.298 .299,.298z"/>
<path d="m19.441,27.73c.001,0 .001,0 0,0 .167-.002 .3-.136 .299-.302l-.007-2.132c0-.166-.135-.299-.3-.299-.001,0-.001,0-.001,0-.166,.001-.299,.136-.298,.302l.008,2.131c.001,.166 .134,.3 .299,.3z"/>
<path d="m19.433,32.803c-.167,0-.3,.136-.299,.301l.009,2.133c0,.164 .134,.298 .299,.298 .001,0 .001,0 .001,0 .166-.001 .299-.136 .298-.301l-.009-2.132c-.001-.165-.134-.299-.299-.299z"/>
<path fill="none" stroke="#000" stroke-linejoin="round" stroke-linecap="round" d="m49.922,44.397 0-31.965" stroke-miterlimit="10"/>
<path d="m49.887,34.622h.141c.69,0 1.25,.56 1.25,1.25v3.125c0,.69-.56,1.25-1.25,1.25h-.141c-.69,0-1.25-.56-1.25-1.25v-3.125c0-.69 .559-1.25 1.25-1.25z"/>
<path d="m49.852,18.031h.141c.69,0 1.25,.559 1.25,1.25v3.125c0,.691-.56,1.25-1.25,1.25h-.141c-.691,0-1.25-.559-1.25-1.25v-3.125c0-.69 .558-1.25 1.25-1.25z"/>
<path fill="none" stroke="#000" d="m43.486,34.284h-12.848c-.691,0-1.25-.415-1.25-.929v-7.297c0-.514 .559-.929 1.25-.929h12.849c.691,0 1.25,.415 1.25,.929v7.297c-.001,.514-.559,.929-1.251,.929z" stroke-miterlimit="10"/>
</svg>
