<?xml version="1.0" encoding="iso-8859-1"?>
<!-- Generator: Adobe Illustrator 16.0.0, SVG Export Plug-In . SVG Version: 6.00 Build 0)  -->
<!DOCTYPE svg PUBLIC "-//W3C//DTD SVG 1.1//EN" "http://www.w3.org/Graphics/SVG/1.1/DTD/svg11.dtd">
<svg version="1.1" xmlns="http://www.w3.org/2000/svg" xmlns:xlink="http://www.w3.org/1999/xlink" x="0px" y="0px"
	 width="21.476px" height="30.193px" viewBox="0 0 21.476 30.193" style="enable-background:new 0 0 21.476 30.193;"
	 xml:space="preserve">
<g id="c181_note">
	<path style="fill-rule:evenodd;clip-rule:evenodd;fill:#000000;" d="M19.464,1.905H14.66v1.946h3.893
		c0.539,0,0.973,0.436,0.973,0.971v5.593v4.08v12.778c0,0.538-0.434,0.973-0.973,0.973H8.696H7.894H2.917
		c-0.537,0-0.97-0.435-0.97-0.973V4.822c0-0.535,0.433-0.971,0.97-0.971H6.87V1.905H1.947C0.87,1.905,0,2.777,0,3.852v24.395
		c0,1.078,0.87,1.947,1.947,1.947h4.722h4.143h8.652c1.078,0,2.012-0.869,2.012-1.947v-15.12v-2.16V3.852
		C21.476,2.777,20.542,1.905,19.464,1.905z"/>
	<path style="fill-rule:evenodd;clip-rule:evenodd;fill:#000000;" d="M6.187,4.962c-0.416,0-0.752,0.232-0.752,0.518
		c0,0.288,0,1.032,0,1.032H16.04c0,0,0-0.744,0-1.032c0-0.285-0.341-0.518-0.755-0.518h-2.264V0.74
		c-2.321-1.648-4.58-0.028-4.58-0.028l0.006,4.25H6.187z"/>
	<rect x="4.354" y="11.209" style="fill-rule:evenodd;clip-rule:evenodd;fill:#000000;" width="12.767" height="2.456"/>
	<rect x="4.354" y="16.809" style="fill-rule:evenodd;clip-rule:evenodd;fill:#000000;" width="12.767" height="2.454"/>
	<rect x="4.354" y="22.637" style="fill-rule:evenodd;clip-rule:evenodd;fill:#000000;" width="12.767" height="2.456"/>
</g>
<g id="Capa_1">
</g>
</svg>
