<?xml version="1.0" encoding="utf-8"?>
<!-- Generator: Adobe Illustrator 16.0.4, SVG Export Plug-In . SVG Version: 6.00 Build 0)  -->
<!DOCTYPE svg PUBLIC "-//W3C//DTD SVG 1.1//EN" "http://www.w3.org/Graphics/SVG/1.1/DTD/svg11.dtd">
<svg version="1.1" id="Capa_1" xmlns="http://www.w3.org/2000/svg" xmlns:xlink="http://www.w3.org/1999/xlink" x="0px" y="0px"
	 width="16px" height="16px" viewBox="0 0 16 16" enable-background="new 0 0 16 16" xml:space="preserve">
<path d="M15.5,0h-2.164c-0.118,0-0.232,0.042-0.322,0.118L5.933,6.097C5.607,6.032,5.3,6,5,6c-2.757,0-5,2.243-5,5s2.243,5,5,5
	s5-2.243,5-5c0-0.525-0.084-1.046-0.25-1.55l1.521-0.989c0.143-0.092,0.229-0.25,0.229-0.419V6.225l1.9-0.1
	c0.248-0.013,0.449-0.206,0.472-0.453l0.183-1.926l1.66-0.794C15.891,2.868,16,2.692,16,2.5v-2C16,0.224,15.775,0,15.5,0z M2.5,12.5
	c0-0.551,0.449-1,1-1c0.386,0,0.741,0.227,0.906,0.575C4.468,12.208,4.5,12.352,4.5,12.5c0,0.551-0.449,1-1,1S2.5,13.051,2.5,12.5z
	 M15,2.185l-1.632,0.78c-0.158,0.076-0.267,0.229-0.282,0.404l-0.168,1.779L10.975,5.25C10.708,5.265,10.5,5.484,10.5,5.75v2.02
	L8.868,8.831C8.665,8.963,8.585,9.223,8.68,9.445C8.893,9.945,9,10.469,9,11c0,2.206-1.794,4-4,4c-0.757,0-1.458-0.223-2.063-0.59
	c0.18,0.053,0.366,0.09,0.563,0.09c1.103,0,2-0.896,2-2c0-0.297-0.064-0.584-0.19-0.852C4.982,10.951,4.271,10.5,3.5,10.5
	c-1.103,0-2,0.896-2,2c0,0.197,0.037,0.383,0.09,0.562C1.223,12.458,1,11.757,1,11c0-2.206,1.794-4,4-4
	c0.295,0,0.605,0.041,0.948,0.124c0.155,0.038,0.319,0,0.441-0.104L13.52,1H15V2.185z"/>
</svg>
