<?xml version="1.0" encoding="utf-8"?>
<!-- Generator: Adobe Illustrator 16.0.4, SVG Export Plug-In . SVG Version: 6.00 Build 0)  -->
<!DOCTYPE svg PUBLIC "-//W3C//DTD SVG 1.1//EN" "http://www.w3.org/Graphics/SVG/1.1/DTD/svg11.dtd">
<svg version="1.1" id="Capa_1" xmlns="http://www.w3.org/2000/svg" xmlns:xlink="http://www.w3.org/1999/xlink" x="0px" y="0px"
	 width="612px" height="792px" viewBox="0 0 612 792" enable-background="new 0 0 612 792" xml:space="preserve">
<path d="M575.279,261.665c-0.816,10.812-2.448,20.502-4.896,29.07c-8.566,30.192-27.336,59.772-56.304,88.74L245.412,648.144
	c-24.888,24.89-50.388,39.169-76.5,42.842c-2.04,0-4.182,0.102-6.426,0.306c-2.244,0.203-4.386,0.305-6.426,0.305
	c-10.608,0-22.44-2.346-35.496-7.038c-13.056-4.69-26.316-13.77-39.78-27.232c-8.976-8.978-16.014-17.748-21.114-26.316
	c-5.1-8.566-8.976-16.83-11.628-24.786s-4.284-15.4-4.896-22.338c-0.612-6.936-0.51-13.26,0.306-18.972
	c2.856-26.112,16.116-51.204,39.78-75.276l226.44-226.438c15.912-15.912,30.396-26.826,43.452-32.742s24.786-8.772,35.19-8.568
	c10.402,0.204,19.48,2.448,27.232,6.732c7.752,4.284,14.076,8.874,18.972,13.77c6.12,6.12,11.222,13.158,15.302,21.114
	s6.018,17.136,5.812,27.54c-0.205,10.404-3.468,21.828-9.792,34.272s-17.034,26.214-32.13,41.31L205.02,575.316l-40.392-41.004
	l208.08-208.082c8.16-8.16,13.974-14.79,17.442-19.89c3.468-5.1,5.712-9.282,6.73-12.546c1.021-3.264,1.021-5.712,0-7.344
	c-1.02-1.632-1.938-2.856-2.754-3.672c-0.815-0.408-2.04-1.122-3.672-2.142c-1.632-1.02-4.08-1.122-7.344-0.306
	c-3.266,0.816-7.549,2.958-12.854,6.426c-5.304,3.468-11.832,9.078-19.584,16.83l-226.44,226.44
	c-4.896,4.896-9.894,11.016-14.994,18.358c-5.1,7.346-8.058,15.098-8.874,23.256c-1.632,13.872,5.304,28.97,20.808,45.288
	c10.2,9.792,18.768,15.198,25.704,16.22c6.936,1.02,11.628,1.324,14.076,0.918c13.872-2.04,28.56-11.018,44.064-26.93
	l268.667-268.667c22.032-21.624,35.904-42.636,41.616-63.036c7.752-28.968-2.244-57.324-29.986-85.068
	c-7.346-7.344-15.812-14.178-25.398-20.502c-9.588-6.324-20.502-10.098-32.742-11.322s-25.806,1.224-40.698,7.344
	c-14.892,6.12-31.312,18.156-49.266,36.108L89.35,449.855c-5.712,5.712-12.546,8.566-20.502,8.566s-14.79-2.854-20.502-8.566
	c-5.712-5.714-8.568-12.444-8.568-20.196s2.856-14.484,8.568-20.196l247.86-247.86c38.76-38.352,78.03-58.548,117.81-60.588
	c39.78-2.04,77.216,14.28,112.304,48.96c13.464,13.464,23.766,26.724,30.904,39.78c7.142,13.056,12.14,25.602,14.994,37.638
	C575.074,239.429,576.094,250.853,575.279,261.665z"/>
</svg>
