<?xml version="1.0" encoding="utf-8"?>
<!-- Generator: Adobe Illustrator 15.0.0, SVG Export Plug-In . SVG Version: 6.00 Build 0)  -->
<!DOCTYPE svg PUBLIC "-//W3C//DTD SVG 1.1//EN" "http://www.w3.org/Graphics/SVG/1.1/DTD/svg11.dtd">
<svg version="1.1" id="Layer_1" xmlns="http://www.w3.org/2000/svg" xmlns:xlink="http://www.w3.org/1999/xlink" x="0px" y="0px"
	 width="26px" height="26px" viewBox="0 0 26 26" enable-background="new 0 0 26 26" xml:space="preserve">
<rect fill="none" width="26" height="26"/>
<rect fill="none" width="26" height="26"/>
<path fill="none" stroke="#000000" stroke-width="1.8" stroke-linecap="round" stroke-linejoin="round" stroke-miterlimit="10" d="
	M6.122,12.07c-0.172,0.646-0.279,1.348-0.322,2.1c-1.017,0-1.8,1.092-1.8,2.556c0,1.465,1.896,2.841,2.7,2.841
	c0.803,3.795,4.958,5.403,6.3,5.403c1.342,0,5.496-1.604,6.3-5.399c1.021,0,2.7-1.434,2.7-2.845c0-1.409-0.835-2.556-1.8-2.556
	c-0.04-0.726-0.14-1.405-0.301-2.033"/>
<circle fill="#000000" cx="16.5" cy="16.5" r="1.463"/>
<circle fill="#000000" cx="9.5" cy="16.5" r="1.462"/>
<line fill="none" stroke="#000000" stroke-width="1.8061" stroke-linecap="round" stroke-linejoin="round" stroke-miterlimit="10" x1="20.225" y1="15.066" x2="20.225" y2="13.26"/>
<line fill="none" stroke="#000000" stroke-width="1.8061" stroke-linecap="round" stroke-linejoin="round" stroke-miterlimit="10" x1="5.775" y1="15.066" x2="5.775" y2="13.26"/>
<path fill="#000000" d="M20.957,11.314c0,0.677-3.707,3.545-7.957,3.545s-7.959-2.868-7.959-3.545c0,0,2.523-1.205,7.959-1.205
	C18.436,10.109,20.957,11.314,20.957,11.314z"/>
<path fill="#000000" d="M23.703,5.063c-6.844,0-8.27-4.896-10.705-4.896c-2.436,0-3.008,4.896-10.654,4.896
	C1.104,5.063,4,8.025,4,9.838c0,0,3.476-0.98,9.05-0.98S21,9.838,21,9.838C21,8.058,24.932,5.063,23.703,5.063z M15,6c0,1-2,2-2,2
	s-2-1-2-2s0-2,0-2h4C15,4,15,5,15,6z"/>
</svg>
