<?xml version="1.0" encoding="iso-8859-1"?>
<!-- Generator: Adobe Illustrator 16.0.4, SVG Export Plug-In . SVG Version: 6.00 Build 0)  -->
<!DOCTYPE svg PUBLIC "-//W3C//DTD SVG 1.1//EN" "http://www.w3.org/Graphics/SVG/1.1/DTD/svg11.dtd">
<svg version="1.1" id="Capa_1" xmlns="http://www.w3.org/2000/svg" xmlns:xlink="http://www.w3.org/1999/xlink" x="0px" y="0px"
	 width="64px" height="64px" viewBox="0 0 64 64" style="enable-background:new 0 0 64 64;" xml:space="preserve">
<path d="M28.782,19.419c0-2.221,0-4.441,0-6.661c2.319,0,4.64,0,6.959,0c0,2.221,0,4.44,0,6.661c0.667,0,1.333,0,2,0
	c0-2.554,0-5.108,0-7.661c0-0.545-0.455-1-1-1c-2.986,0-5.973,0-8.959,0c-0.545,0-1,0.455-1,1c0,2.554,0,5.107,0,7.661
	C27.449,19.419,28.116,19.419,28.782,19.419z"/>
<path d="M43.5,19.419c-1.919,0-3.839,0-5.759,0c-0.667,0-1.333,0-2,0c-2.319,0-4.639,0-6.959,0c-0.667,0-1.333,0-2,0
	c-0.663,0-1.325,0-1.987,0c-1.422,0-2.844,0-4.266,0c-0.545,0-1,0.455-1,1c0,6.081,0,12.162,0,18.244c0,2.778,0,5.558,0,8.337
	c0,0.545,0.455,1,1,1c3.157,0,6.314,0,9.471,0v-2c-1.735,0-3.47,0-5.205,0c-1.088,0-2.177,0-3.266,0c0-5.748,0-11.495,0-17.244
	c0-2.445,0-4.891,0-7.337c5.902,0,11.803,0,17.706,0c1.089,0,2.177,0,3.266,0c0,5.748,0,11.495,0,17.244c0,2.445,0,4.891,0,7.337
	c-2.833,0-5.667,0-8.5,0v2c1.745,0,3.489,0,5.234,0c1.422,0,2.844,0,4.266,0c0.274,0,0.478-0.103,0.635-0.245
	c0.023-0.017,0.048-0.031,0.069-0.051c0.02-0.021,0.034-0.046,0.051-0.069C44.397,47.478,44.5,47.274,44.5,47
	c0-6.081,0-12.162,0-18.244c0-2.779,0-5.558,0-8.337C44.5,19.874,44.045,19.419,43.5,19.419z"/>
<path d="M33.292,43.5c0-0.129,0-0.257,0-0.386c0.867,0,1.734,0,2.603,0c0.273,0,0.5-0.228,0.5-0.5c0-0.564,0-1.128,0-1.692
	c0-0.273-0.227-0.5-0.5-0.5c-0.867,0-1.734,0-2.603,0c0-0.043,0-0.085,0-0.128c1.149,0,2.3,0,3.449,0
	c0.143,0,0.248-0.054,0.328-0.13c0.007-0.006,0.014-0.01,0.021-0.016c0.014-0.014,0.023-0.03,0.034-0.046
	c0.068-0.078,0.117-0.177,0.117-0.311c0-0.563,0-1.128,0-1.692c0-0.272-0.228-0.5-0.5-0.5c-1.149,0-2.3,0-3.449,0
	c0-0.115,0-0.23,0-0.346c0-0.273-0.228-0.5-0.5-0.5c-0.564,0-1.128,0-1.692,0c-0.273,0-0.5,0.227-0.5,0.5c0,2.082,0,4.164,0,6.246
	c0,1.667,0,3.333,0,5c0,0.025,0,0.05,0,0.075c0.319-0.129,0.652-0.212,1-0.234c0-3.529,0-7.058,0-10.587c0.23,0,0.461,0,0.692,0
	c0,0.115,0,0.23,0,0.346c0,0.273,0.228,0.5,0.5,0.5c1.148,0,2.3,0,3.449,0c0,0.231,0,0.463,0,0.694c-1.149,0-2.301,0-3.449,0
	c-0.272,0-0.5,0.228-0.5,0.5c0,0.376,0,0.752,0,1.128c0,0.273,0.228,0.5,0.5,0.5c0.867,0,1.734,0,2.603,0c0,0.23,0,0.462,0,0.692
	c-0.867,0-1.734,0-2.603,0c-0.272,0-0.5,0.227-0.5,0.5c0,1.921,0,3.842,0,5.763c0.349,0.055,0.686,0.149,1,0.31
	c0-0.062,0-0.124,0-0.187C33.292,46.833,33.292,45.167,33.292,43.5z"/>
<path d="M32.292,48.377c-0.162-0.025-0.32-0.062-0.487-0.062c-0.07,0-0.136,0.021-0.205,0.026c-0.348,0.022-0.681,0.105-1,0.234
	c-1.629,0.656-2.818,2.576-2.818,4.872c0,2.834,1.801,5.133,4.023,5.133s4.023-2.299,4.023-5.133c0-2.163-1.052-4.006-2.536-4.761
	C32.978,48.526,32.641,48.432,32.292,48.377z M34.596,53.447c0,1.965-1.25,3.559-2.791,3.559c-1.541,0-2.79-1.594-2.79-3.559
	c0-1.966,1.249-3.559,2.79-3.559C33.346,49.889,34.596,51.481,34.596,53.447z"/>
</svg>
