<?xml version="1.0" encoding="utf-8"?>
<!-- Generator: Adobe Illustrator 16.0.4, SVG Export Plug-In . SVG Version: 6.00 Build 0)  -->
<!DOCTYPE svg PUBLIC "-//W3C//DTD SVG 1.1//EN" "http://www.w3.org/Graphics/SVG/1.1/DTD/svg11.dtd">
<svg version="1.1" id="Capa_1" xmlns="http://www.w3.org/2000/svg" xmlns:xlink="http://www.w3.org/1999/xlink" x="0px" y="0px"
	 width="450.683px" height="450px" viewBox="0 0 450.683 450" enable-background="new 0 0 450.683 450" xml:space="preserve">
<path d="M450.181,185c0-23.333-2.832-45.333-8.5-66s-11.834-37.167-18.5-49.5S409.015,46,400.681,36
	c-8.331-10-14.331-16.667-17.999-20c-3.673-3.34-6.841-5.673-9.5-7l-11-8l-12,8c-18.666,12.667-37.666,19-57,19
	c-22,0-40.332-6-55-18l-13-10l-12,10c-15.333,12-34,18-56,18c-19.333,0-38.333-6.333-57-19l-12-8l-11,8c-3.333,2-7,4.833-11,8.5
	s-10.167,10.667-18.5,21S32.015,60,25.682,72s-12,28-17,48s-7.833,41.333-8.5,64c-0.667,4,0.5,12.833,3.5,26.5s9.333,32.167,19,55.5
	s22.167,46.333,37.5,69s37.5,44.833,66.5,66.5s61.833,37.833,98.5,48.5c29.333-8,56-19,80-33s43.668-28.667,59-44
	c15.334-15.333,28.668-31.667,39.999-49c11.334-17.333,20-33.5,26-48.5s10.668-29.333,14-43c3.334-13.667,5.334-24.334,6-32
	C450.849,192.833,450.849,187.667,450.181,185z"/>
</svg>
