<?xml version="1.0" encoding="utf-8"?>
<!-- Generator: Adobe Illustrator 16.0.4, SVG Export Plug-In . SVG Version: 6.00 Build 0)  -->
<!DOCTYPE svg PUBLIC "-//W3C//DTD SVG 1.1//EN" "http://www.w3.org/Graphics/SVG/1.1/DTD/svg11.dtd">
<svg version="1.1" id="Capa_1" xmlns="http://www.w3.org/2000/svg" xmlns:xlink="http://www.w3.org/1999/xlink" x="0px" y="0px"
	 width="430.039px" height="492px" viewBox="0 0 430.039 492" enable-background="new 0 0 430.039 492" xml:space="preserve">
<path d="M411.039,231c-9.333-28-13.333-49.667-12-65c2.667-35.334,13-67.667,31-97l-69-69c-21.333,18.667-46,29-74,31
	c-26,2.667-50.333-2.333-73-15c-24,12-48.333,17-73,15c-26.667-2-50.333-11.333-71-28l-69,69c16.667,30,26,61.333,28,94
	c0.667,15.333-3.667,36.333-13,63c-5.333,14.667-9.333,27.333-12,38c-2,10.667-3.333,19.333-4,26c-0.667,28.667,7.333,54.333,24,77
	c12.667,16.667,34,35.333,64,56c32,16.667,56.667,27,74,31c2,1.333,4.667,2.667,8,4s5.333,2.333,6,3s5.667,3,15,7
	c11.333,6.667,19,13.667,23,21c4.667-8,12.333-15,23-21c8-4,14.333-7,19-9c5.333-2,9-3.667,11-5c3.333-1.333,8-3.333,14-6
	c8.667-3.333,16-6,22-8c16.667-6,29.333-11.667,38-17c28-20.667,48.667-39,62-55c17.335-22.667,25.668-48.667,25-78
	C427.369,279.667,421.702,259,411.039,231z M273.039,260c-11.333,7.333-28.333,11-51,11h-32v88h-49V133h69c19.333,0,35,1.5,47,4.5
	s22,9.833,30,20.5c9.333,11.333,14,25.333,14,42C301.039,227.333,291.706,247.333,273.039,260z"/>
<path d="M244.039,179c-5.331-4.662-10.165-7.329-14.5-8c-4.333-0.667-9.833-1-16.5-1h-24v65h19c5.333,0,9.833-0.167,13.5-0.5
	s8.167-1.5,13.5-3.5s9.5-5.667,12.5-11s4.5-12,4.5-20C252.039,190.667,249.372,183.667,244.039,179z"/>
</svg>
