<?xml version="1.0" encoding="utf-8"?>
<!-- Generator: Adobe Illustrator 15.0.0, SVG Export Plug-In . SVG Version: 6.00 Build 0)  -->
<!DOCTYPE svg PUBLIC "-//W3C//DTD SVG 1.1//EN" "http://www.w3.org/Graphics/SVG/1.1/DTD/svg11.dtd">
<svg version="1.1" id="Layer_1" xmlns="http://www.w3.org/2000/svg" xmlns:xlink="http://www.w3.org/1999/xlink" x="0px" y="0px"
	 width="26px" height="26px" viewBox="0 0 26 26" enable-background="new 0 0 26 26" xml:space="preserve">
<g>
	<path d="M18.457,5.8H8.352c-0.213,0-0.387,0.173-0.387,0.387v13.626c0,0.214,0.173,0.387,0.387,0.387h7.538
		c0.109,0,0.215-0.047,0.287-0.129l2.568-2.877c0.063-0.07,0.099-0.162,0.099-0.257V6.188C18.844,5.974,18.671,5.8,18.457,5.8z
		 M17.625,15.864l-2.305-0.002c-0.114,0-0.223,0.045-0.304,0.126c-0.081,0.08-0.126,0.189-0.125,0.304l0.008,2.885H9.126V6.77h8.499
		V15.864z"/>
	<rect x="10.532" y="8.396" width="5.656" height="1.289"/>
	<rect x="10.503" y="11.548" width="5.656" height="1.289"/>
</g>
</svg>
