<svg width="64" xmlns="http://www.w3.org/2000/svg" height="64" viewBox="0 0 64 64" xmlns:xlink="http://www.w3.org/1999/xlink" enable-background="new 0 0 64 64">
<path d="m44.746,17.988h-3.869v-2.13c0-2.277-2.321-4.131-5.174-4.131h-6.609c-2.853,0-5.174,1.854-5.174,4.131h2c0-1.155 1.453-2.131 3.174-2.131h6.609c1.721,0 3.174,.976 3.174,2.131v2.13h-13.957-4.869c-1.318,0-2.392,1.073-2.392,2.392v26.087c0,1.318 1.073,2.392 2.392,2.392h24.695c1.318,0 2.392-1.073 2.392-2.392v-26.087c-0-1.318-1.074-2.392-2.392-2.392zm.392,28.479c0,.216-.176,.392-.392,.392h-24.695c-.216,0-.392-.176-.392-.392v-26.087c0-.216 .176-.392 .392-.392h4.869 15.957 3.869c.216,0 .392,.176 .392,.392v26.087z"/>
<path d="m32.398,24.31c-3.988,0-7.232,3.243-7.232,7.23 0,2.373 1.199,4.605 3.164,5.95l.447,3.05c.166,1.121 1.185,2 2.317,2h2.562c1.127,0 2.149-.873 2.329-1.992l.478-3.056c1.967-1.344 3.168-3.577 3.168-5.952-0-3.987-3.244-7.23-7.233-7.23zm2.601,11.743c-.33,.19-.503,.549-.479,.919l-.511,3.264c-.024,.147-.205,.305-.354,.305h-2.562c-.144,0-.317-.15-.339-.292l-.469-3.193c.056-.398-.135-.797-.489-1.002-1.649-.954-2.632-2.641-2.632-4.513 0-2.884 2.348-5.23 5.232-5.23 2.885,0 5.232,2.347 5.232,5.23 .003,1.871-.981,3.558-2.629,4.512z"/>
</svg>
