<svg width="64" xmlns="http://www.w3.org/2000/svg" height="64" viewBox="0 0 64 64" xmlns:xlink="http://www.w3.org/1999/xlink" enable-background="new 0 0 64 64">
<g fill="#0e0f0f">
<path d="m19.554,38.563c-1.873,0-1.889,2.901-.022,2.901 1.873,.001 1.89-2.901 .022-2.901z"/>
<path d="m32.087,42.236c.206,0 .373-.167 .373-.374 0-.206-.373-.587-.373-.587s-.376,.381-.376,.587c-0,.207 .169,.374 .376,.374z"/>
<path d="m29.853,43.77c0,.206 .167,.373 .372,.373 .207,0 .375-.167 .375-.373s-.375-.588-.375-.588-.372,.381-.372,.588z"/>
<path d="m29.771,41.858c.253,0 .454-.203 .454-.454s-.454-.714-.454-.714-.454,.463-.454,.714 .204,.454 .454,.454z"/>
<path d="m61.663,55.425l-27.681-49.444c-.471-.838-1.355-1.357-2.316-1.357s-1.847,.519-2.316,1.357l-27.681,49.444c-.46,.821-.451,1.825 .025,2.639 .478,.813 1.349,1.313 2.29,1.313h55.363c.941,0 1.813-.5 2.288-1.313 .477-.814 .487-1.818 .028-2.639zm-28.871-19.241c-.743,1.026-1.455,2.617-1.455,2.617s1.699-2.651 6.045-.712v-.002c1.546,.772 2.224,2.384 2.224,2.384s2.639,5.313 .384,8.657c-1.83,2.891-6.617,3.203-8.591,3.203-.67,0-1.097-.036-1.097-.036-.036-.002-.07-.004-.104-.004h-7.01c.006-.617 .018-1.23 .062-1.845 .611-.646 1.146-1.347 1.574-2.112 .201,.182 .394,.373 .574,.58 .117,.133 .269,.212 .433,.252 .158,.071 .347,.093 .562,.04 .941-.23 1.837-.6 2.739-.952 .442-.172 .743-.576 .608-1.068-.115-.423-.628-.782-1.07-.608-.692,.269-1.382,.549-2.09,.769-.249-.264-.518-.512-.802-.743-.042-.12-.102-.24-.188-.362-.603-.866-1.207-1.731-1.809-2.595 .666,.101 1.336,.18 2.01,.234 1.116,.094 1.109-1.647 0-1.739-1.195-.099-2.37-.285-3.54-.549-.055-.012-.109-.02-.161-.021-1.024-.472-2.164,.28-2.124,1.497-.094,.394-.212,.78-.371,1.15-.564-.091-1.127-.181-1.69-.272-.466-.079-.936,.113-1.07,.605-.116,.422 .138,.993 .606,1.071 .796,.131 1.59,.256 2.385,.388 .43,.069 .856-.092 1.027-.501 .058-.054 .109-.115 .145-.191 .06-.12 .115-.243 .167-.366 .641,.918 1.283,1.837 1.924,2.756 .017,.024 .036,.048 .054,.071-.354,.569-.782,1.095-1.256,1.575-.078,.081-.136,.167-.176,.253-.091,.126-.157,.275-.174,.46-.068,.741-.085,1.481-.09,2.225h-11.941l22.16-39.581 10.432,18.63c-1.375-1.137-2.849-1.714-4.41-1.714l-.001,.012c-6.101,.107-9.05,7.022-9.25,7.396-.317,.594-1.343,3.485-1.343,3.485s3.604-4.26 5.698-4.337z"/>
</g>
</svg>
